<svg xmlns="http://www.w3.org/2000/svg" viewBox="0 0 268 181" xml:space="preserve"><path fill="#11A7F3" d="M169 182H1V1h268v181H169m85.002-66.5V16.305H16.316v149.39h237.686V115.5z"/><path d="M254.002 116v49.695H16.316V16.305h237.686V116M63.199 57.293c-3.214 2.164-6.6 4.12-9.579 6.57-1.831 1.506-3.041 3.766-4.53 5.688l1.102 1.525c5.576 0 11.152 0 17.047.692 2.9 8.439 5.799 16.878 8.766 26.05 13.581 9.997 28.584 17.421 44.344 24.985 5.854.759 11.708 1.518 17.623 3.04-1.121 3.331-2.516 6.604-3.244 10.02-.344 1.613.106 3.885 1.104 5.134.724.907 3.183 1.247 4.442.753 3.678-1.442 7.24-3.26 10.665-5.246 4.12-2.388 8.051-5.1 12.99-7.522 9.506-.972 19.477 2.56 28.512-2.974 2.355-1.443 4.975-2.55 7.077-4.29 3.646-3.02 7.922-5.857 10.234-9.775 3.555-6.025 5.786-12.856 8.294-19.454.446-1.174-.494-2.876-1.002-5.076.06-.77.309-2.176.155-2.221-7.238-2.138-14.424-4.579-21.799-6.095-11.45-2.353-22.977-4.529-34.577-5.88-6.848-.797-14.23-1.14-20.788.562-13.857 3.595-27.331 8.665-41.24 12.495-4.248-6.798-8.496-13.596-12.8-21.05-.997-1.217-2.284-2.295-2.94-3.674-2.835-5.962-5.35-12.078-8.266-17.999-1.253-2.544-3.551-5.28-6.528-3.898-1.683.781-2.668 3.95-3.157 6.218-.786 3.64-.9 7.425-1.905 11.422z"/><path fill="#4DB3FA" d="M119.913 122.083c-15.324-6.844-30.327-14.268-43.808-24.975 5.505-2.386 10.992-3.844 16.278-5.834 2.433-.916 4.472-2.878 6.69-4.365 13.63-4.465 27.105-9.535 40.962-13.13 6.559-1.701 13.94-1.36 20.788-.562 11.6 1.351 23.127 3.527 34.577 5.88 7.375 1.516 14.561 3.957 21.8 6.095.153.045-.095 1.45-.32 2.835-2.199 1.701-4.243 2.774-6.269 3.88-6.208 3.39-12.41 6.792-18.836 9.932-12.948-8.06-25.653-15.897-38.437-23.604-1.263-.762-3.01-.722-4.805-1.1a8.651 8.651 0 0 1-1.074-.237c-1.552.987-3.232 1.825-4.07 3.182-6.643 10.758-13.225 21.556-19.592 32.479-1.71 2.933-2.611 6.336-3.884 9.524z"/><path fill="#79C5FF" d="M191.997 102.096c6.204-3.397 12.406-6.8 18.614-10.19 2.026-1.105 4.07-2.178 6.374-3.508.567 1.215 1.507 2.917 1.06 4.091-2.507 6.598-4.738 13.429-8.293 19.454-2.312 3.918-6.588 6.756-10.234 9.774-2.102 1.74-4.722 2.848-7.077 4.29-9.035 5.535-19.006 2.003-29.153 2.637-1.116-1.464-1.59-2.589-1.953-3.776.258-.159.394-.267.801-.616 1.724-1.337 3.198-2.408 4.605-3.56 3.52-2.883 7.01-5.802 10.862-8.727 5.03-3.302 9.712-6.586 14.394-9.869z"/><path fill="#79C4FF" d="M120.13 122.443c1.056-3.548 1.958-6.951 3.667-9.884 6.367-10.923 12.949-21.721 19.592-32.479.838-1.357 2.518-2.195 4.114-2.75 2.005 8.238 3.705 15.953 5.091 23.788-3.414 7.35-6.515 14.58-9.953 21.892a145.412 145.412 0 0 0-4.73 2.07c-5.854-.76-11.708-1.518-17.78-2.637z"/><path fill="#71C0F8" d="M98.934 86.591c-2.08 1.805-4.118 3.767-6.55 4.683-5.287 1.99-10.774 3.448-16.313 5.467a474.592 474.592 0 0 1-8.757-25.608c2.96-1.491 5.861-2.3 8.725-3.222 1.694-.545 3.33-1.272 5.326-1.916 1.786-.037 3.236-.076 4.686-.115A3955.103 3955.103 0 0 1 98.934 86.59z"/><path fill="#4DB3FA" d="M137.942 125.461c1.433-1.045 2.898-1.707 5.12-2.419 6.56.597 12.36 1.243 18.161 1.888.475 1.125.95 2.25 1.602 3.64-3.835 2.834-7.767 5.546-11.886 7.934-3.425 1.985-6.987 3.804-10.665 5.246-1.259.494-3.718.154-4.442-.753-.998-1.249-1.448-3.52-1.104-5.135.728-3.415 2.123-6.688 3.214-10.4z"/><path fill="#79C4FF" d="M86.023 65.552c-1.422.367-2.872.406-4.982.322-6.185-3.033-11.71-5.943-17.236-8.853.398-3.725.513-7.51 1.299-11.15.49-2.268 1.474-5.437 3.157-6.218 2.977-1.382 5.275 1.354 6.528 3.898 2.915 5.92 5.431 12.037 8.266 17.999.656 1.379 1.943 2.457 2.968 4.002z"/><path fill="#12A7F3" d="M63.502 57.157c5.829 2.774 11.354 5.684 17.204 8.716a25.066 25.066 0 0 1-4.667 2.038c-2.864.923-5.765 1.73-8.885 2.876-5.81.289-11.386.289-16.962.289L49.09 69.55c1.489-1.922 2.699-4.182 4.53-5.688 2.98-2.45 6.365-4.406 9.882-6.706z"/><path fill="#70C0F8" d="M191.775 101.839c-4.46 3.54-9.142 6.824-14.46 9.932-9.927-11.646-19.219-23.119-28.51-34.59 1.522.332 3.27.292 4.533 1.054 12.784 7.707 25.489 15.545 38.437 23.604z"/><path fill="#13A7F3" d="M148.533 77.134c9.563 11.518 18.855 22.99 28.434 34.657-3.215 3.099-6.706 6.018-10.226 8.901-1.407 1.152-2.881 2.223-4.84 3.25-3.34-7.703-6.167-15.324-8.993-22.945-1.7-7.714-3.4-15.429-5.143-23.575.137-.4.317-.366.768-.288z"/><path fill="#70C0F8" d="M152.594 101.118c3.14 7.5 5.967 15.12 9.028 23.053.107.43-.029.538-.287.697-5.912-.583-11.713-1.229-17.935-1.907 2.68-7.262 5.78-14.493 9.194-21.843z"/></svg>