<svg version="1.1" id="Layer_1" xmlns="http://www.w3.org/2000/svg" xmlns:xlink="http://www.w3.org/1999/xlink" x="0px" y="0px"
	 width="100%" viewBox="0 0 268 181" enable-background="new 0 0 268 181" xml:space="preserve">
<path fill="#11A7F3" opacity="1.000000" stroke="none" 
	d="
M169.000000,182.000000 
	C112.666672,182.000000 56.833347,182.000000 1.000015,182.000000 
	C1.000010,121.666679 1.000010,61.333363 1.000005,1.000031 
	C90.333313,1.000021 179.666626,1.000021 268.999939,1.000010 
	C268.999969,61.333302 268.999969,121.666603 269.000000,181.999954 
	C235.833328,182.000000 202.666672,182.000000 169.000000,182.000000 
M254.001740,115.500000 
	C254.001740,82.425354 254.001740,49.350704 254.001740,16.305435 
	C174.346512,16.305435 95.322891,16.305435 16.315521,16.305435 
	C16.315521,66.314613 16.315521,116.018036 16.315521,165.694611 
	C95.654778,165.694611 174.678467,165.694611 254.001740,165.694611 
	C254.001740,149.094208 254.001740,132.797104 254.001740,115.500000 
z"/>
<path fill="#000000" opacity="1.000000" stroke="none" 
	d="
M254.001740,116.000000 
	C254.001740,132.797104 254.001740,149.094208 254.001740,165.694611 
	C174.678467,165.694611 95.654778,165.694611 16.315521,165.694611 
	C16.315521,116.018036 16.315521,66.314613 16.315521,16.305435 
	C95.322891,16.305435 174.346512,16.305435 254.001740,16.305435 
	C254.001740,49.350704 254.001740,82.425354 254.001740,116.000000 
M63.199497,57.292576 
	C59.985249,59.457088 56.599648,61.413200 53.620052,63.863102 
	C51.789028,65.368614 50.578976,67.629379 49.090092,69.551010 
	C49.457352,70.059258 49.824612,70.567505 50.191872,71.075752 
	C55.767696,71.075752 61.343525,71.075752 67.239288,71.768211 
	C70.138451,80.206970 73.037613,88.645721 76.004654,97.818932 
	C89.586304,107.815079 104.589180,115.239334 120.348549,122.803467 
	C126.202751,123.562004 132.056946,124.320541 137.972443,125.843254 
	C136.850937,129.174469 135.456009,132.447372 134.727707,135.862427 
	C134.383530,137.476349 134.833939,139.747986 135.831665,140.996613 
	C136.556381,141.903564 139.014954,142.244171 140.274139,141.750320 
	C143.951996,140.307892 147.513870,138.489166 150.939011,136.503677 
	C155.058334,134.115784 158.990128,131.404373 163.929504,128.982071 
	C173.434509,128.010254 183.406372,131.542389 192.441010,126.007576 
	C194.796341,124.564636 197.415741,123.457352 199.517746,121.717384 
	C203.164368,118.698845 207.440369,115.860695 209.751572,111.943398 
	C213.306747,105.917679 215.538193,99.087029 218.045639,92.489342 
	C218.492142,91.314507 217.552231,89.612762 217.044189,87.413162 
	C217.104782,86.642303 217.352768,85.237099 217.199066,85.191696 
	C209.961288,83.053566 202.775024,80.613136 195.399963,79.097122 
	C183.950211,76.743515 172.422791,74.568100 160.823471,73.217377 
	C153.975433,72.419930 146.593567,72.077644 140.034988,73.778954 
	C126.177864,77.373550 112.703629,82.444153 98.795013,86.273598 
	C94.547142,79.475632 90.299271,72.677666 85.994713,65.224068 
	C84.998047,64.007217 83.710777,62.928555 83.055038,61.549583 
	C80.219994,55.587734 77.704208,49.471809 74.789276,43.551270 
	C73.536407,41.006573 71.237701,38.270950 68.261276,39.652901 
	C66.578087,40.434399 65.593178,43.602585 65.103577,45.870579 
	C64.317711,49.511009 64.203392,53.296406 63.199497,57.292576 
z"/>
<path fill="#4DB3FA" opacity="1.000000" stroke="none" 
	d="
M119.913048,122.082718 
	C104.589180,115.239334 89.586304,107.815079 76.104858,97.107941 
	C81.609993,94.721611 87.097038,93.264320 92.383209,91.273613 
	C94.815788,90.357544 96.854836,88.396492 99.072327,86.909271 
	C112.703629,82.444153 126.177864,77.373550 140.034988,73.778954 
	C146.593567,72.077644 153.975433,72.419930 160.823471,73.217377 
	C172.422791,74.568100 183.950211,76.743515 195.399963,79.097122 
	C202.775024,80.613136 209.961288,83.053566 217.199066,85.191696 
	C217.352768,85.237099 217.104782,86.642303 216.880585,88.026932 
	C214.681274,89.728371 212.637192,90.800636 210.611481,91.906563 
	C204.402756,95.296150 198.201111,98.698654 191.775238,101.838570 
	C178.826889,93.779854 166.122192,85.941910 153.338470,78.235046 
	C152.074524,77.473053 150.327255,77.512794 148.533295,77.134445 
	C148.081985,77.055687 147.901688,77.022896 147.459442,76.898392 
	C145.907364,77.885162 144.227158,78.722786 143.388870,80.080292 
	C136.745926,90.837708 130.163712,101.636055 123.797417,112.558563 
	C122.087891,115.491554 121.185799,118.895157 119.913048,122.082718 
z"/>
<path fill="#79C5FF" opacity="1.000000" stroke="none" 
	d="
M191.996704,102.096138 
	C198.201111,98.698654 204.402756,95.296150 210.611481,91.906563 
	C212.637192,90.800636 214.681274,89.728371 216.984741,88.397522 
	C217.552231,89.612762 218.492142,91.314507 218.045639,92.489342 
	C215.538193,99.087029 213.306747,105.917679 209.751572,111.943398 
	C207.440369,115.860695 203.164368,118.698845 199.517746,121.717384 
	C197.415741,123.457352 194.796341,124.564636 192.441010,126.007576 
	C183.406372,131.542389 173.434509,128.010254 163.288239,128.643616 
	C162.172379,127.180168 161.697815,126.055161 161.335297,124.867676 
	C161.593048,124.709206 161.729385,124.601349 162.136230,124.252136 
	C163.859741,122.914932 165.333801,121.844414 166.740967,120.692154 
	C170.261414,117.809395 173.751556,114.889595 177.602692,111.965363 
	C182.633270,108.662758 187.314987,105.379448 191.996704,102.096138 
z"/>
<path fill="#79C4FF" opacity="1.000000" stroke="none" 
	d="
M120.130798,122.443092 
	C121.185799,118.895157 122.087891,115.491554 123.797417,112.558563 
	C130.163712,101.636055 136.745926,90.837708 143.388870,80.080292 
	C144.227158,78.722786 145.907364,77.885162 147.502686,77.330261 
	C149.507858,85.568306 151.207840,93.282768 152.594452,101.117523 
	C149.180206,108.468178 146.079330,115.698540 142.641083,123.009956 
	C140.839523,123.753700 139.375336,124.416389 137.911148,125.079079 
	C132.056946,124.320541 126.202751,123.562004 120.130798,122.443092 
z"/>
<path fill="#71C0F8" opacity="1.000000" stroke="none" 
	d="
M98.933670,86.591431 
	C96.854836,88.396492 94.815788,90.357544 92.383209,91.273613 
	C87.097038,93.264320 81.609993,94.721611 76.070923,96.740715 
	C73.037613,88.645721 70.138451,80.206970 67.313828,71.132935 
	C70.274017,69.641678 73.175217,68.833946 76.039467,67.911499 
	C77.733223,67.366005 79.368561,66.639114 81.365295,65.995285 
	C83.150734,65.957741 84.601067,65.918724 86.051392,65.879707 
	C90.299271,72.677666 94.547142,79.475632 98.933670,86.591431 
z"/>
<path fill="#4DB3FA" opacity="1.000000" stroke="none" 
	d="
M137.941803,125.461166 
	C139.375336,124.416389 140.839523,123.753700 143.062622,123.042313 
	C149.622086,123.639130 155.422668,124.284645 161.223236,124.930153 
	C161.697815,126.055161 162.172379,127.180168 162.825043,128.569107 
	C158.990128,131.404373 155.058334,134.115784 150.939011,136.503677 
	C147.513870,138.489166 143.951996,140.307892 140.274139,141.750320 
	C139.014954,142.244171 136.556381,141.903564 135.831665,140.996613 
	C134.833939,139.747986 134.383530,137.476349 134.727707,135.862427 
	C135.456009,132.447372 136.850937,129.174469 137.941803,125.461166 
z"/>
<path fill="#79C4FF" opacity="1.000000" stroke="none" 
	d="
M86.023056,65.551888 
	C84.601067,65.918724 83.150734,65.957741 81.040894,65.874054 
	C74.856018,62.841072 69.330650,59.930805 63.805279,57.020542 
	C64.203392,53.296406 64.317711,49.511009 65.103577,45.870579 
	C65.593178,43.602585 66.578087,40.434399 68.261276,39.652901 
	C71.237701,38.270950 73.536407,41.006573 74.789276,43.551270 
	C77.704208,49.471809 80.219994,55.587734 83.055038,61.549583 
	C83.710777,62.928555 84.998047,64.007217 86.023056,65.551888 
z"/>
<path fill="#12A7F3" opacity="1.000000" stroke="none" 
	d="
M63.502388,57.156559 
	C69.330650,59.930805 74.856018,62.841072 80.705780,65.872566 
	C79.368561,66.639114 77.733223,67.366005 76.039467,67.911499 
	C73.175217,68.833946 70.274017,69.641678 67.153854,70.786697 
	C61.343525,71.075752 55.767696,71.075752 50.191872,71.075752 
	C49.824612,70.567505 49.457352,70.059258 49.090092,69.551010 
	C50.578976,67.629379 51.789028,65.368614 53.620052,63.863102 
	C56.599648,61.413200 59.985249,59.457088 63.502388,57.156559 
z"/>
<path fill="#70C0F8" opacity="1.000000" stroke="none" 
	d="
M191.775238,101.838570 
	C187.314987,105.379448 182.633270,108.662758 177.315826,111.771378 
	C167.388153,100.124588 158.096237,88.652496 148.804306,77.180412 
	C150.327255,77.512794 152.074524,77.473053 153.338470,78.235046 
	C166.122192,85.941910 178.826889,93.779854 191.775238,101.838570 
z"/>
<path fill="#13A7F3" opacity="1.000000" stroke="none" 
	d="
M148.533295,77.134445 
	C158.096237,88.652496 167.388153,100.124588 176.966965,111.790665 
	C173.751556,114.889595 170.261414,117.809395 166.740967,120.692154 
	C165.333801,121.844414 163.859741,122.914932 161.901489,123.941147 
	C158.560532,116.238838 155.734177,108.618027 152.907837,100.997223 
	C151.207840,93.282768 149.507858,85.568306 147.764633,77.421982 
	C147.901688,77.022896 148.081985,77.055687 148.533295,77.134445 
z"/>
<path fill="#70C0F8" opacity="1.000000" stroke="none" 
	d="
M152.594452,101.117523 
	C155.734177,108.618027 158.560532,116.238838 161.621613,124.170639 
	C161.729385,124.601349 161.593048,124.709206 161.335297,124.867676 
	C155.422668,124.284645 149.622086,123.639130 143.399994,122.961258 
	C146.079330,115.698540 149.180206,108.468178 152.594452,101.117523 
z"/>
</svg>